<svg width="51" height="51" viewBox="0 0 51 51" fill="none" xmlns="http://www.w3.org/2000/svg">
<path d="M10.5585 18.5272C10.0087 18.5272 9.56244 18.9735 9.56244 19.5233C9.56244 20.0732 10.0087 20.5194 10.5585 20.5194C11.1084 20.5194 11.5546 20.0732 11.5546 19.5233C11.5546 18.9735 11.1084 18.5272 10.5585 18.5272Z" fill="#19422F"/>
<path d="M34.4649 20.5194H29.4844V15.5389C29.4844 14.9889 29.0383 14.5428 28.4883 14.5428H22.5117C21.9616 14.5428 21.5156 14.9889 21.5156 15.5389V20.5194H16.5351C15.9851 20.5194 15.539 20.9655 15.539 21.5155V27.4921C15.539 28.0422 15.9851 28.4882 16.5351 28.4882H21.5156V33.4687C21.5156 34.0188 21.9616 34.4648 22.5117 34.4648H28.4883C29.0383 34.4648 29.4844 34.0188 29.4844 33.4687V28.4882H34.4649C35.0149 28.4882 35.461 28.0422 35.461 27.4921V21.5155C35.461 20.9655 35.0149 20.5194 34.4649 20.5194ZM33.4688 26.496H28.4883C27.9382 26.496 27.4922 26.9421 27.4922 27.4921V32.4726H23.5078V27.4921C23.5078 26.9421 23.0617 26.496 22.5117 26.496H17.5312V22.5116H22.5117C23.0617 22.5116 23.5078 22.0656 23.5078 21.5155V16.535H27.4922V21.5155C27.4922 22.0656 27.9382 22.5116 28.4883 22.5116H33.4688V26.496Z" fill="#19422F"/>
<path d="M40.8773 3.0621C39.2646 4.1092 37.3916 4.66253 35.461 4.66253C32.5084 4.66253 29.7252 3.36332 27.8251 1.0979C27.825 1.0979 27.825 1.0979 27.825 1.0979C27.2398 0.400232 26.3923 0 25.5 0C24.6077 0 23.7602 0.400232 23.1749 1.0978C21.2749 3.36322 18.4916 4.66243 15.539 4.66243C13.6084 4.66243 11.7354 4.109 10.1228 3.062C8.15318 1.78371 5.57806 3.28872 5.57806 5.60873V25.9262C5.57806 30.4456 7.02778 34.8612 9.65987 38.3595C16.1714 47.0175 24.7455 50.7639 25.1073 50.9192C25.2327 50.973 25.3664 51 25.5 51C25.6336 51 25.7675 50.973 25.8928 50.9192C26.2546 50.7639 34.8287 47.0176 41.3401 38.3606C43.9724 34.8612 45.422 30.4452 45.422 25.9262V5.60883C45.422 3.28862 42.8463 1.78371 40.8773 3.0621ZM39.748 37.1631C34.333 44.3624 27.2306 48.0738 25.4994 48.9064C23.7675 48.0758 16.6789 44.3781 11.2519 37.162C8.87774 34.0067 7.57026 30.0165 7.57026 25.9263V5.60883C7.57026 4.8505 8.40708 4.32366 9.03791 4.73306C10.9744 5.99023 13.2225 6.65473 15.539 6.65473C19.0822 6.65473 22.4218 5.09604 24.7012 2.37818C24.91 2.12926 25.1936 1.9922 25.5 1.9922C25.8064 1.9922 26.09 2.12926 26.2987 2.37818C28.5784 5.09594 31.9179 6.65473 35.461 6.65473C37.7775 6.65473 40.0255 5.99023 41.9621 4.73306C42.5827 4.32994 43.4298 4.83904 43.4298 5.60883V25.9262C43.4298 30.0161 42.1223 34.0067 39.748 37.1631Z" fill="#19422F"/>
<path d="M41.0162 7.97085C40.7519 7.78418 40.4135 7.73756 40.1085 7.84564C38.6099 8.37736 37.0462 8.6469 35.4611 8.6469C32.0372 8.6469 28.7352 7.38295 26.1633 5.08785C25.7855 4.75067 25.2147 4.75067 24.8369 5.08785C22.2651 7.38295 18.963 8.6469 15.5391 8.6469C13.9541 8.6469 12.3904 8.37736 10.8918 7.84564C10.5865 7.73756 10.2484 7.78418 9.98401 7.97085C9.71985 8.15752 9.56266 8.46093 9.56266 8.78446V15.539C9.56266 16.089 10.0087 16.5351 10.5588 16.5351C11.1088 16.5351 11.5549 16.089 11.5549 15.539V10.1309C12.8556 10.4686 14.1905 10.6392 15.5392 10.6392C19.1645 10.6392 22.6688 9.40075 25.5002 7.13483C28.3316 9.40075 31.8359 10.6392 35.4612 10.6392C36.8099 10.6392 38.1449 10.4686 39.4456 10.1309V25.9263C39.4456 29.1587 38.4223 32.2978 36.5635 34.7657C32.7969 39.7757 28.1966 42.8778 25.5096 44.4051C22.8014 42.8578 18.1714 39.7321 14.4366 34.7673C12.5782 32.2978 11.5548 29.1581 11.5548 25.9262V23.5077C11.5548 22.9576 11.1087 22.5116 10.5587 22.5116C10.0086 22.5116 9.56256 22.9576 9.56256 23.5077V25.9262C9.56256 29.5875 10.7282 33.1527 12.8446 35.965C17.0333 41.5334 22.2758 44.905 25.0279 46.4191C25.1774 46.5013 25.3426 46.5424 25.508 46.5424C25.6723 46.5424 25.8369 46.5018 25.9857 46.4204C28.7166 44.9279 33.9291 41.5846 38.1552 35.9635C40.2719 33.1529 41.4376 29.5884 41.4376 25.9262V8.78436C41.4376 8.46083 41.2804 8.15752 41.0162 7.97085Z" fill="#19422F"/>
</svg>
