<svg width="31" height="31" viewBox="0 0 31 31" fill="none" xmlns="http://www.w3.org/2000/svg">
<path d="M15.5 0C6.95278 0 0 6.95344 0 15.5C0 24.0466 6.95278 31 15.5 31C24.0472 31 31 24.0466 31 15.5C31 6.95344 24.0472 0 15.5 0ZM15.5 29.7084C7.66548 29.7084 1.29165 23.3345 1.29165 15.5C1.29165 7.66548 7.66548 1.29165 15.5 1.29165C23.3345 1.29165 29.7084 7.66548 29.7084 15.5C29.7084 23.3345 23.3345 29.7084 15.5 29.7084Z" fill="black"/>
<path d="M21.6619 14.9569L12.6203 9.14443C12.4222 9.01517 12.1662 9.0082 11.9618 9.12046C11.7537 9.23398 11.625 9.45098 11.625 9.68748V21.3125C11.625 21.549 11.7537 21.766 11.9618 21.8795C12.0577 21.9319 12.1649 21.9583 12.2709 21.9583C12.3919 21.9583 12.5143 21.9242 12.6203 21.8555L21.6619 16.043C21.8461 15.9245 21.9584 15.7195 21.9584 15.5C21.9584 15.2805 21.8461 15.0755 21.6619 14.9569ZM12.9166 20.1293V10.8707L20.118 15.5L12.9166 20.1293Z" fill="black"/>
</svg>
