<svg width="32" height="30" viewBox="0 0 32 30" fill="none" xmlns="http://www.w3.org/2000/svg">
<path d="M22.173 11H9.48693C9.20683 11 8.97949 11.2235 8.97949 11.5C8.97949 11.7765 9.20683 12 9.48693 12H22.173C22.4531 12 22.6804 11.7765 22.6804 11.5C22.6804 11.2235 22.4531 11 22.173 11Z" fill="black"/>
<path d="M9.48693 8H14.5613C14.8415 8 15.0688 7.7765 15.0688 7.5C15.0688 7.2235 14.8415 7 14.5613 7H9.48693C9.20683 7 8.97949 7.2235 8.97949 7.5C8.97949 7.7765 9.20683 8 9.48693 8Z" fill="black"/>
<path d="M22.173 15H9.48693C9.20683 15 8.97949 15.2235 8.97949 15.5C8.97949 15.7765 9.20683 16 9.48693 16H22.173C22.4531 16 22.6804 15.7765 22.6804 15.5C22.6804 15.2235 22.4531 15 22.173 15Z" fill="black"/>
<path d="M22.173 19H9.48693C9.20683 19 8.97949 19.2235 8.97949 19.5C8.97949 19.7765 9.20683 20 9.48693 20H22.173C22.4531 20 22.6804 19.7765 22.6804 19.5C22.6804 19.2235 22.4531 19 22.173 19Z" fill="black"/>
<path d="M22.173 23H9.48693C9.20683 23 8.97949 23.2235 8.97949 23.5C8.97949 23.7765 9.20683 24 9.48693 24H22.173C22.4531 24 22.6804 23.7765 22.6804 23.5C22.6804 23.2235 22.4531 23 22.173 23Z" fill="black"/>
<path d="M20.3535 0H3.90527V30H27.755V7.293L20.3535 0ZM20.6508 1.707L26.0226 7H20.6508V1.707ZM4.92016 29V1H19.6359V8H26.7401V29H4.92016Z" fill="black"/>
</svg>
