<svg width="58" height="58" viewBox="0 0 58 58" fill="none" xmlns="http://www.w3.org/2000/svg">
<g clip-path="url(#clip0)">
<path d="M1.41454 52.3401H6.41002V20.4537C6.41002 19.6738 7.04462 19.0392 7.82456 19.0392H11.0521C11.5208 19.0392 11.9008 19.4191 11.9008 19.8879C11.9008 20.3566 11.5208 20.7366 11.0521 20.7366H8.10743V52.3401H16.1693V20.7366H15.043C14.5742 20.7366 14.1943 20.3566 14.1943 19.8879C14.1943 19.4191 14.5742 19.0392 15.043 19.0392H16.4522C17.2321 19.0392 17.8667 19.6738 17.8667 20.4537V52.3402H23.2715V31.1989C23.2715 30.419 23.9061 29.7844 24.686 29.7844H33.3137C34.0937 29.7844 34.7283 30.419 34.7283 31.1989V52.3401H40.1332V40.4815C40.1332 39.7016 40.7678 39.067 41.5477 39.067H50.1753C50.9553 39.067 51.5899 39.7016 51.5899 40.4815V44.277C51.5899 44.7458 51.2099 45.1257 50.7412 45.1257C50.2724 45.1257 49.8925 44.7458 49.8925 44.277V40.7645H41.8307V52.3402H49.8925V48.2238C49.8925 47.7551 50.2724 47.3751 50.7412 47.3751C51.2099 47.3751 51.5899 47.7551 51.5899 48.2238V52.3402H56.5855C57.3654 52.3401 58 52.9747 58 53.7548V56.4612C58 57.2411 57.3654 57.8757 56.5855 57.8757H1.41454C0.634602 57.8757 0 57.2411 0 56.4612V53.7548C0 52.9747 0.634602 52.3401 1.41454 52.3401ZM33.0309 31.4819H24.969V52.3402H33.0309V31.4819ZM1.69752 56.1783H56.3025V54.0378H50.7411H40.9818H33.8795H24.1202H17.018H7.25872H1.69741V56.1783H1.69752Z" fill="#19422F"/>
<path d="M50.9487 31.2036L51.4342 34.0344C51.5696 34.8237 51.2511 35.6064 50.6033 36.077C50.2372 36.343 49.8088 36.4783 49.3777 36.4783C49.0458 36.4783 48.7122 36.3981 48.4038 36.2361L45.8617 34.8996L43.3195 36.2361C42.6108 36.6087 41.7681 36.5477 41.1201 36.0771C40.4722 35.6064 40.1538 34.8236 40.2891 34.0344L40.7747 31.2036L38.718 29.1988C38.1446 28.6399 37.9421 27.8195 38.1895 27.0579C38.437 26.2962 39.0829 25.7516 39.8754 25.6364L42.7177 25.2233L43.9887 22.6479C44.3431 21.9297 45.0608 21.4837 45.8617 21.4837C46.6625 21.4837 47.3801 21.9298 47.7344 22.6479L49.0055 25.2233L51.8478 25.6364C52.6403 25.7516 53.2862 26.2961 53.5338 27.0579C53.7812 27.8196 53.5787 28.6399 53.0053 29.1987L50.9487 31.2036ZM51.9194 27.5824C51.8967 27.5129 51.8208 27.3478 51.6037 27.3162L48.6316 26.8843C48.16 26.816 47.7526 26.5198 47.5415 26.0924L46.2123 23.3992C46.1152 23.2024 45.9347 23.1811 45.8617 23.1811C45.7886 23.1811 45.6081 23.2023 45.511 23.3992L44.1817 26.0923C43.9708 26.5197 43.5633 26.8158 43.0918 26.8843L40.1196 27.3162C39.9024 27.3478 39.8265 27.5129 39.8038 27.5824C39.7812 27.652 39.7456 27.8302 39.9029 27.9832L42.0534 30.0796C42.3948 30.4121 42.5505 30.8913 42.4698 31.3609L41.9621 34.3212C41.925 34.5374 42.0586 34.6608 42.1177 34.7037C42.177 34.7467 42.3356 34.8357 42.5295 34.7334L45.188 33.3357C45.3989 33.2248 45.6304 33.1694 45.8617 33.1694C46.093 33.1694 46.3244 33.225 46.5354 33.3357L49.1938 34.7334C49.3881 34.8356 49.5465 34.7467 49.6056 34.7037C49.6648 34.6607 49.7983 34.5374 49.7613 34.3212L49.2535 31.361C49.1729 30.8913 49.3286 30.4122 49.6697 30.0797L51.8205 27.9833C51.9776 27.8302 51.942 27.652 51.9194 27.5824Z" fill="#19422F"/>
<path d="M34.0871 20.8772L34.5726 23.7081C34.708 24.4973 34.3897 25.2799 33.7418 25.7506C33.3757 26.0166 32.9474 26.1518 32.5161 26.1518C32.1842 26.1518 31.8506 26.0717 31.5422 25.9097L29.0001 24.5732L26.458 25.9097C25.7492 26.2825 24.9064 26.2214 24.2583 25.7506C23.6104 25.2799 23.2921 24.4972 23.4275 23.7081L23.9131 20.8772L21.8564 18.8724C21.2829 18.3135 21.0805 17.4931 21.3279 16.7315C21.5753 15.9698 22.2214 15.4253 23.014 15.3101L25.8561 14.897L27.1272 12.3215C27.4817 11.6034 28.1993 11.1573 29.0001 11.1573C29.8009 11.1573 30.5185 11.6034 30.873 12.3215L32.144 14.897L34.9863 15.3101C35.7787 15.4253 36.4248 15.9698 36.6723 16.7315C36.9198 17.493 36.7174 18.3135 36.1438 18.8725L34.0871 20.8772ZM35.0579 17.256C35.0353 17.1865 34.9594 17.0215 34.7422 16.9899L31.7697 16.558C31.2982 16.4893 30.891 16.1934 30.6801 15.7661L29.3508 13.0728C29.2537 12.876 29.0733 12.8548 29.0002 12.8548C28.9272 12.8548 28.7467 12.876 28.6496 13.0728L27.3201 15.7665C27.1093 16.1935 26.702 16.4893 26.2304 16.558L23.2581 16.9899C23.0409 17.0215 22.9651 17.1867 22.9424 17.2561C22.9199 17.3257 22.8843 17.5038 23.0414 17.6569L25.1922 19.7534C25.5332 20.086 25.6888 20.5648 25.6084 21.0346L25.1006 23.9949C25.0636 24.2111 25.1971 24.3344 25.2563 24.3773C25.3154 24.4201 25.474 24.5094 25.6682 24.407L28.3265 23.0095C28.5374 22.8985 28.7688 22.843 29.0002 22.843C29.2315 22.843 29.463 22.8986 29.6739 23.0093L32.3324 24.407C32.5268 24.5093 32.6851 24.4201 32.7442 24.3773C32.8033 24.3344 32.9367 24.2111 32.8997 23.9949L32.392 21.0346C32.3114 20.5651 32.467 20.0861 32.8083 19.7533L34.959 17.657C35.116 17.5038 35.0805 17.3257 35.0579 17.256Z" fill="#19422F"/>
<path d="M17.2255 9.84402L17.7111 12.6748C17.8466 13.464 17.5281 14.2468 16.8803 14.7175C16.2323 15.1882 15.3897 15.249 14.6807 14.8765L12.1385 13.54L9.59639 14.8765C9.28804 15.0385 8.95443 15.1186 8.6224 15.1186C8.19114 15.1186 7.76282 14.9835 7.39681 14.7175C6.74884 14.2468 6.43052 13.464 6.56601 12.6748L7.05153 9.84402L4.99491 7.83928C4.42136 7.28035 4.21893 6.45997 4.46634 5.69849C4.71375 4.93679 5.35979 4.39213 6.1523 4.27692L8.99453 3.86379L10.2657 1.28834C10.6201 0.570247 11.3378 0.124146 12.1385 0.124146C12.9393 0.124146 13.657 0.570247 14.0114 1.28834L15.2825 3.86379L18.1247 4.27692C18.9172 4.39202 19.5632 4.93667 19.8107 5.69838C20.0581 6.45985 19.8557 7.28035 19.2823 7.83928L17.2255 9.84402ZM18.1962 6.22298C18.1737 6.15343 18.0978 5.98838 17.8805 5.95677L14.9086 5.52483C14.4367 5.45641 14.0291 5.1604 13.8184 4.73299L12.4891 2.03973C12.3919 1.84296 12.2115 1.82178 12.1385 1.82178C12.0656 1.82178 11.8849 1.84296 11.7879 2.03973L10.4586 4.73311C10.2476 5.1604 9.84006 5.45652 9.36881 5.52483L6.39642 5.95677C6.17926 5.98838 6.10325 6.15354 6.08071 6.22298C6.05817 6.29254 6.0226 6.47061 6.17972 6.62377L8.33059 8.72038C8.67157 9.05297 8.82722 9.53181 8.74679 10.0016L8.23906 12.9617C8.20201 13.1781 8.33557 13.3014 8.39471 13.3443C8.45373 13.3873 8.61232 13.4763 8.8066 13.374L11.465 11.9764C11.6759 11.8655 11.9073 11.81 12.1386 11.81C12.3701 11.81 12.6014 11.8655 12.8122 11.9763L15.4707 13.374C15.6649 13.4763 15.8235 13.3871 15.8826 13.3443C15.9417 13.3012 16.0752 13.1781 16.0382 12.9617L15.5305 10.0018C15.4499 9.53215 15.6054 9.0532 15.9467 8.72027L18.0975 6.62377C18.2546 6.47061 18.2189 6.29242 18.1962 6.22298Z" fill="#19422F"/>
</g>
<defs>
<clipPath id="clip0">
<rect width="58" height="58" fill="white" transform="matrix(-1 0 0 1 58 0)"/>
</clipPath>
</defs>
</svg>
