<svg width="54" height="54" viewBox="0 0 54 54" fill="none" xmlns="http://www.w3.org/2000/svg">
<g clip-path="url(#clip0)">
<path d="M53.78 23.0301L44.7418 11.2893C44.4073 10.855 43.7971 10.7479 43.3345 11.0421L37.4991 14.7532H29.8884C29.79 14.7532 29.6919 14.7743 29.5972 14.8019L23.6963 16.5005L17.5733 14.8258L11.6238 11.0421C11.169 10.7528 10.5699 10.8509 10.2317 11.2703L0.234833 23.653C-0.12442 24.0979 -0.065094 24.7476 0.368317 25.1205L5.60797 29.6297L10.3087 35.9644C8.93395 37.429 8.96073 39.739 10.3911 41.1699C11.0252 41.8035 11.8315 42.1615 12.6608 42.2448C12.6319 42.4326 12.6171 42.6234 12.6171 42.817C12.6171 43.8165 13.0064 44.7562 13.713 45.4628C14.42 46.1698 15.3597 46.5591 16.3592 46.5591C16.3728 46.5591 16.386 46.5583 16.3992 46.5579C16.3987 46.5834 16.3975 46.6085 16.3975 46.6341C16.3975 47.6336 16.7868 48.5733 17.4934 49.2803C18.2004 49.9868 19.1401 50.3762 20.1396 50.3762C20.3369 50.3762 20.5322 50.3601 20.7238 50.3304C20.805 51.1626 21.1638 51.9726 21.7999 52.6087C22.5291 53.3383 23.4874 53.7029 24.4457 53.7029C25.404 53.7029 26.3622 53.3383 27.0919 52.6087L27.6641 52.0365L27.9043 52.2301C28.6278 52.9309 29.5671 53.2811 30.5064 53.2811C31.4647 53.2811 32.423 52.9165 33.1522 52.1868C33.8967 51.4424 34.2613 50.4598 34.246 49.4821C35.2233 49.497 36.2063 49.1328 36.9507 48.3887C37.6944 47.6447 38.059 46.6629 38.0446 45.6857C39.0626 45.7017 40.0283 45.3108 40.7488 44.5902C41.4933 43.8457 41.8579 42.8631 41.8427 41.8855C42.8207 41.9003 43.8029 41.5361 44.5474 40.7917C45.8179 39.5211 45.9815 37.5572 45.0393 36.1074L48.4716 28.919L53.6317 24.4786C54.0581 24.1115 54.1232 23.4754 53.78 23.0301ZM11.2852 13.3364L15.5632 16.0568L6.25685 27.3947L2.52754 24.1849L11.2852 13.3364ZM11.8887 37.3751L13.1799 36.0839C13.219 36.0448 13.2602 36.0077 13.3022 35.9731C13.5548 35.7671 13.8605 35.6443 14.1843 35.6151C14.1934 35.6142 14.2029 35.6142 14.2119 35.6138C14.2581 35.6101 14.3042 35.6076 14.3508 35.608C14.7932 35.6142 15.2044 35.7951 15.5093 36.1169C16.1075 36.7493 16.0753 37.7825 15.4376 38.4203L14.1855 39.6723C13.5523 40.3055 12.5219 40.3055 11.8887 39.6723C11.2555 39.0387 11.2555 38.0083 11.8887 37.3751ZM15.2106 43.9652C14.9036 43.6587 14.7347 43.2508 14.7347 42.817C14.7347 42.3832 14.9036 41.9753 15.2106 41.6684L17.7142 39.1647C18.1938 38.6852 18.9477 38.5538 19.5607 38.8459C20.1927 39.147 20.5483 39.833 20.4556 40.5231C20.4061 40.8914 20.2348 41.2383 19.9719 41.5015L17.5078 43.9652C17.2009 44.2721 16.793 44.4411 16.3592 44.4411C15.9254 44.4411 15.5175 44.2721 15.2106 43.9652ZM18.991 47.7823C18.684 47.4758 18.5151 47.0679 18.5151 46.6341C18.5151 46.2002 18.684 45.7924 18.991 45.4855L21.4942 42.9818C22.0071 42.4693 22.8299 42.3589 23.4577 42.7243C24.0312 43.058 24.3316 43.7131 24.2331 44.3657C24.1791 44.7245 24.0086 45.0619 23.7519 45.3186L21.2882 47.7823C20.9813 48.0892 20.5734 48.2581 20.1396 48.2581C19.7058 48.2581 19.2979 48.0892 18.991 47.7823ZM23.2971 51.1111C22.6638 50.4779 22.6638 49.4475 23.2971 48.8143L24.5882 47.5231C24.6274 47.484 24.6682 47.4473 24.7102 47.4127C24.7114 47.4119 24.7122 47.4111 24.7131 47.4103C24.9232 47.2397 25.17 47.1256 25.4332 47.0757C25.4394 47.0749 25.4456 47.0741 25.4518 47.0732C25.4971 47.065 25.5432 47.0584 25.5894 47.0543C25.6079 47.0527 25.6264 47.0527 25.6454 47.0514C25.6833 47.0494 25.7208 47.0469 25.7591 47.0473C26.2012 47.0535 26.6127 47.2339 26.9176 47.5561C26.9551 47.5956 26.9901 47.6368 27.0223 47.6793C27.5092 48.3158 27.4437 49.2613 26.8393 49.8661L25.5939 51.1115C24.9607 51.7448 23.9303 51.7444 23.2971 51.1111ZM43.0498 39.2941C42.4166 39.9277 41.3862 39.9273 40.753 39.2941C40.7299 39.271 40.7056 39.2496 40.6809 39.2294L33.8724 32.3492C33.4608 31.9335 32.7905 31.9302 32.3748 32.3418C31.9591 32.753 31.9558 33.4233 32.367 33.839L39.2492 40.7929C39.25 40.7937 39.2509 40.7946 39.2517 40.7954C39.8849 41.4286 39.8849 42.4594 39.2517 43.0926C38.9448 43.3996 38.5369 43.5685 38.1031 43.5685C37.6688 43.5685 37.261 43.3996 36.9544 43.0926L32.3505 38.4409C31.9393 38.0252 31.269 38.0219 30.8533 38.433C30.4376 38.8446 30.4343 39.5149 30.8455 39.9306L35.379 44.5111C35.4021 44.5399 35.4268 44.5675 35.4532 44.5939C36.0864 45.2271 36.0864 46.2579 35.4532 46.8912C34.8195 47.5244 33.7887 47.524 33.1555 46.8907L30.6428 44.3517C30.2312 43.936 29.5609 43.9323 29.1452 44.3438C28.7295 44.755 28.7262 45.4253 29.1374 45.841L31.5801 48.3088C31.6031 48.3376 31.6279 48.3657 31.6546 48.392C32.2879 49.0252 32.2879 50.056 31.6546 50.6893C31.0214 51.3229 29.991 51.3225 29.3578 50.6893C29.2849 50.6163 29.1992 50.5603 29.1176 50.4977C29.0484 50.445 29.0303 50.4083 29.0649 50.3242C29.0999 50.239 29.1522 50.1619 29.1872 50.0762C29.226 49.9806 29.2573 49.8822 29.2878 49.7833C29.4501 49.2601 29.4979 48.6973 29.425 48.1543C29.2849 47.1124 28.7118 46.1722 27.8433 45.5773C27.3741 45.2564 26.8311 45.0459 26.2683 44.9668C26.5411 43.7638 26.2135 42.4594 25.3615 41.5592C24.6603 40.8185 23.7132 40.4028 22.6943 40.3888C22.6572 40.3883 22.6202 40.3883 22.5827 40.3888C22.6053 39.4165 22.2519 38.4503 21.5815 37.7421C20.8799 37.0014 19.9328 36.5857 18.9143 36.5717C18.6115 36.5676 18.3058 36.5997 18.0109 36.6677C17.8848 35.7906 17.4427 34.9789 16.7732 34.3985C16.1079 33.8225 15.2711 33.5028 14.38 33.4904C13.4419 33.4768 12.5203 33.8229 11.8236 34.452L7.73053 28.9367L17.5226 17.0072L20.6435 17.8609L16.5677 25.0529C16.0749 25.9226 15.9505 26.932 16.2171 27.8952C16.4836 28.8589 17.109 29.6606 17.9787 30.1533C18.0331 30.1842 18.0879 30.2135 18.1435 30.2415C18.1476 30.2436 18.1518 30.2456 18.1563 30.2477C18.3025 30.3206 18.4529 30.3832 18.6054 30.436C19.3152 30.6819 20.0819 30.7087 20.8214 30.5043C21.7847 30.2378 22.5864 29.612 23.0791 28.7427L25.7278 24.0687L30.457 24.4041L43.0502 36.9969C43.683 37.6305 43.683 38.6609 43.0498 39.2941ZM43.4886 34.4405L31.6748 22.6271C31.6526 22.6045 31.6291 22.5831 31.6048 22.5629C31.4346 22.4212 31.2237 22.3355 31.0012 22.3198L25.2107 21.9091C24.8103 21.8815 24.4123 22.0944 24.2146 22.4434L21.2367 27.6987C21.0229 28.0761 20.6748 28.3476 20.2566 28.4634C19.8388 28.5791 19.4005 28.5247 19.0227 28.3109C18.6453 28.0971 18.3738 27.749 18.258 27.3308C18.1423 26.9126 18.1962 26.4743 18.4105 26.0969L22.3857 19.0812L23.9966 18.6177C24.0073 18.6144 24.0176 18.6103 24.0283 18.607L30.0405 16.8709H37.3046L46.3733 28.3991L43.4886 34.4405ZM47.7605 26.7371L39.374 16.0704L43.6542 13.3484L51.4906 23.5273L47.7605 26.7371Z" fill="#19422F"/>
<path d="M32.7147 12.765C32.9858 12.765 33.2568 12.6616 33.4637 12.4548L40.6965 5.22192C41.1102 4.80829 41.1102 4.13799 40.6965 3.72435C40.2829 3.31071 39.6126 3.31071 39.1989 3.72435L31.9661 10.9572C31.5524 11.3708 31.5524 12.0411 31.9661 12.4548C32.1729 12.6616 32.444 12.765 32.7147 12.765Z" fill="#19422F"/>
<path d="M20.5363 12.4548C20.7432 12.6616 21.0142 12.765 21.2853 12.765C21.556 12.765 21.8271 12.6616 22.0339 12.4548C22.4475 12.0411 22.4475 11.3708 22.0339 10.9572L14.8011 3.72435C14.3874 3.31071 13.7171 3.31071 13.3035 3.72435C12.8898 4.13799 12.8898 4.80829 13.3035 5.22192L20.5363 12.4548Z" fill="#19422F"/>
<path d="M27 12.7651C27.5846 12.7651 28.0588 12.2909 28.0588 11.7063V5.72049C28.0588 5.13588 27.5846 4.66168 27 4.66168C26.4154 4.66168 25.9412 5.13588 25.9412 5.72049V11.7063C25.9412 12.2909 26.4154 12.7651 27 12.7651Z" fill="#19422F"/>
<path d="M26.0228 1.88283C26.1909 2.29029 26.6099 2.55767 27.0519 2.5346C27.4886 2.51194 27.8722 2.21696 28.0073 1.80126C28.1429 1.38227 27.9954 0.904776 27.6444 0.637808C27.2863 0.365073 26.787 0.349829 26.4125 0.597433C25.9948 0.873465 25.8328 1.42306 26.0228 1.88283Z" fill="#19422F"/>
</g>
<defs>
<clipPath id="clip0">
<rect width="54" height="54" fill="white"/>
</clipPath>
</defs>
</svg>
