<svg width="12" height="20" viewBox="0 0 12 20" fill="none" xmlns="http://www.w3.org/2000/svg">
<path d="M7.71905 19.9628H4.56727C4.04082 19.9628 3.61257 19.5276 3.61257 18.9926V11.7686H1.77376C1.24731 11.7686 0.819065 11.3333 0.819065 10.7985V7.70299C0.819065 7.16803 1.24731 6.73285 1.77376 6.73285H3.61257V5.18274C3.61257 3.64574 4.08752 2.33808 4.9859 1.40136C5.88834 0.460365 7.14951 -0.036911 8.63305 -0.036911L11.0368 -0.0329438C11.5623 -0.0320283 11.9898 0.403146 11.9898 0.937195V3.8113C11.9898 4.34626 11.5617 4.78144 11.0354 4.78144L9.41702 4.78205C8.92345 4.78205 8.79777 4.8826 8.77089 4.91342C8.7266 4.96454 8.67389 5.10904 8.67389 5.50805V6.7327H10.9138C11.0824 6.7327 11.2458 6.77497 11.3862 6.85462C11.689 7.02658 11.8773 7.35174 11.8773 7.70315L11.8761 10.7986C11.8761 11.3333 11.4479 11.7685 10.9214 11.7685H8.67389V18.9926C8.67389 19.5276 8.2455 19.9628 7.71905 19.9628ZM4.76637 18.7903H7.51994V11.2437C7.51994 10.8865 7.80599 10.596 8.15735 10.596H10.7223L10.7234 7.90532H8.1572C7.80584 7.90532 7.51994 7.6148 7.51994 7.2576V5.50805C7.51994 5.04999 7.56574 4.52906 7.90599 4.13753C8.31712 3.6642 8.96505 3.60958 9.41672 3.60958L10.836 3.60897V1.13922L8.63215 1.13556C6.24797 1.13556 4.76637 2.68644 4.76637 5.18274V7.2576C4.76637 7.61465 4.48048 7.90532 4.12911 7.90532H1.97287V10.596H4.12911C4.48048 10.596 4.76637 10.8865 4.76637 11.2437V18.7903ZM11.0345 1.13952H11.0346H11.0345Z" fill="#CBCBCB"/>
</svg>
